<?xml version="1.0" encoding="UTF-8" standalone="no"?>
<!DOCTYPE svg PUBLIC "-//W3C//DTD SVG 1.1//EN"
 "http://www.w3.org/Graphics/SVG/1.1/DTD/svg11.dtd">
<!-- Generated by graphviz version 2.38.0 (20140413.2041)
 -->
<!-- Title: controllers_diagram Pages: 1 -->
<svg width="462pt" height="440pt"
 viewBox="0.00 0.00 462.00 439.50" xmlns="http://www.w3.org/2000/svg" xmlns:xlink="http://www.w3.org/1999/xlink">
<g id="graph0" class="graph" transform="scale(1 1) rotate(0) translate(100 227.5)">
<title>controllers_diagram</title>
<polygon fill="none" stroke="none" points="-100,212 -100,-227.5 362,-227.5 362,212 -100,212"/>
<!-- _diagram_info -->
<g id="node1" class="node"><title>_diagram_info</title>
<text text-anchor="start" x="152" y="-207.6" font-family="Times,serif" font-size="13.00">Controllers diagram</text>
<text text-anchor="start" x="152" y="-193.6" font-family="Times,serif" font-size="13.00">Date: Dec 05 2018 &#45; 21:02</text>
<text text-anchor="start" x="152" y="-179.6" font-family="Times,serif" font-size="13.00">Migration version: 20181205181847</text>
<text text-anchor="start" x="152" y="-165.6" font-family="Times,serif" font-size="13.00">Generated by RailRoady 1.5.3</text>
<text text-anchor="start" x="152" y="-151.6" font-family="Times,serif" font-size="13.00">http://railroady.prestonlee.com</text>
</g>
<!-- ApplicationController -->
<g id="node2" class="node"><title>ApplicationController</title>
<path fill="none" stroke="black" d="M-84,-129C-84,-129 28,-129 28,-129 34,-129 40,-135 40,-141 40,-141 40,-211 40,-211 40,-217 34,-223 28,-223 28,-223 -84,-223 -84,-223 -90,-223 -96,-217 -96,-211 -96,-211 -96,-141 -96,-141 -96,-135 -90,-129 -84,-129"/>
<text text-anchor="middle" x="-28" y="-207.8" font-family="Times,serif" font-size="14.00">ApplicationController</text>
<polyline fill="none" stroke="black" points="-96,-200 40,-200 "/>
<polyline fill="none" stroke="black" points="-96,-176 40,-176 "/>
<polyline fill="none" stroke="black" points="-96,-152 40,-152 "/>
<text text-anchor="start" x="-88" y="-136.8" font-family="Times,serif" font-size="14.00">_layout</text>
</g>
<!-- WritesController -->
<g id="node3" class="node"><title>WritesController</title>
<path fill="none" stroke="black" d="M-51.5,111.5C-51.5,111.5 33.5,111.5 33.5,111.5 39.5,111.5 45.5,105.5 45.5,99.5 45.5,99.5 45.5,-89.5 45.5,-89.5 45.5,-95.5 39.5,-101.5 33.5,-101.5 33.5,-101.5 -51.5,-101.5 -51.5,-101.5 -57.5,-101.5 -63.5,-95.5 -63.5,-89.5 -63.5,-89.5 -63.5,99.5 -63.5,99.5 -63.5,105.5 -57.5,111.5 -51.5,111.5"/>
<text text-anchor="middle" x="-9" y="-86.3" font-family="Times,serif" font-size="14.00">WritesController</text>
<polyline fill="none" stroke="black" points="-63.5,-78.5 45.5,-78.5 "/>
<text text-anchor="start" x="-55.5" y="-63.3" font-family="Times,serif" font-size="14.00">create</text>
<text text-anchor="start" x="-55.5" y="-48.3" font-family="Times,serif" font-size="14.00">destroy</text>
<text text-anchor="start" x="-55.5" y="-33.3" font-family="Times,serif" font-size="14.00">edit</text>
<text text-anchor="start" x="-55.5" y="-18.3" font-family="Times,serif" font-size="14.00">find_post</text>
<text text-anchor="start" x="-55.5" y="-3.3" font-family="Times,serif" font-size="14.00">index</text>
<text text-anchor="start" x="-55.5" y="11.7" font-family="Times,serif" font-size="14.00">new</text>
<text text-anchor="start" x="-55.5" y="26.7" font-family="Times,serif" font-size="14.00">show</text>
<text text-anchor="start" x="-55.5" y="41.7" font-family="Times,serif" font-size="14.00">update</text>
<polyline fill="none" stroke="black" points="-63.5,49.5 45.5,49.5 "/>
<polyline fill="none" stroke="black" points="-63.5,73.5 45.5,73.5 "/>
<text text-anchor="start" x="-55.5" y="88.7" font-family="Times,serif" font-size="14.00">_layout</text>
<text text-anchor="start" x="-55.5" y="103.7" font-family="Times,serif" font-size="14.00">write_params</text>
</g>
<!-- PagesController -->
<g id="node4" class="node"><title>PagesController</title>
<path fill="none" stroke="black" d="M92,207.5C92,207.5 172,207.5 172,207.5 178,207.5 184,201.5 184,195.5 184,195.5 184,126.5 184,126.5 184,120.5 178,114.5 172,114.5 172,114.5 92,114.5 92,114.5 86,114.5 80,120.5 80,126.5 80,126.5 80,195.5 80,195.5 80,201.5 86,207.5 92,207.5"/>
<text text-anchor="middle" x="132" y="129.7" font-family="Times,serif" font-size="14.00">PagesController</text>
<polyline fill="none" stroke="black" points="80,137.5 184,137.5 "/>
<text text-anchor="start" x="88" y="152.7" font-family="Times,serif" font-size="14.00">index</text>
<polyline fill="none" stroke="black" points="80,160.5 184,160.5 "/>
<polyline fill="none" stroke="black" points="80,184.5 184,184.5 "/>
<text text-anchor="start" x="88" y="199.7" font-family="Times,serif" font-size="14.00">_layout</text>
</g>
<!-- UserparamsController -->
<g id="node5" class="node"><title>UserparamsController</title>
<path fill="none" stroke="black" d="M92.5,79.5C92.5,79.5 205.5,79.5 205.5,79.5 211.5,79.5 217.5,73.5 217.5,67.5 217.5,67.5 217.5,-91.5 217.5,-91.5 217.5,-97.5 211.5,-103.5 205.5,-103.5 205.5,-103.5 92.5,-103.5 92.5,-103.5 86.5,-103.5 80.5,-97.5 80.5,-91.5 80.5,-91.5 80.5,67.5 80.5,67.5 80.5,73.5 86.5,79.5 92.5,79.5"/>
<text text-anchor="middle" x="149" y="-88.3" font-family="Times,serif" font-size="14.00">UserparamsController</text>
<polyline fill="none" stroke="black" points="80.5,-80.5 217.5,-80.5 "/>
<text text-anchor="start" x="88.5" y="-65.3" font-family="Times,serif" font-size="14.00">create</text>
<text text-anchor="start" x="88.5" y="-50.3" font-family="Times,serif" font-size="14.00">destroy</text>
<text text-anchor="start" x="88.5" y="-35.3" font-family="Times,serif" font-size="14.00">edit</text>
<text text-anchor="start" x="88.5" y="-20.3" font-family="Times,serif" font-size="14.00">new</text>
<text text-anchor="start" x="88.5" y="-5.3" font-family="Times,serif" font-size="14.00">show</text>
<text text-anchor="start" x="88.5" y="9.7" font-family="Times,serif" font-size="14.00">update</text>
<polyline fill="none" stroke="black" points="80.5,17.5 217.5,17.5 "/>
<polyline fill="none" stroke="black" points="80.5,41.5 217.5,41.5 "/>
<text text-anchor="start" x="88.5" y="56.7" font-family="Times,serif" font-size="14.00">_layout</text>
<text text-anchor="start" x="88.5" y="71.7" font-family="Times,serif" font-size="14.00">profile_params</text>
</g>
</g>
</svg>
