<?xml version="1.0" encoding="UTF-8" standalone="no"?>
<!DOCTYPE svg PUBLIC "-//W3C//DTD SVG 1.1//EN"
 "http://www.w3.org/Graphics/SVG/1.1/DTD/svg11.dtd">
<!-- Generated by graphviz version 2.38.0 (20140413.2041)
 -->
<!-- Title: models_diagram Pages: 1 -->
<svg width="872pt" height="363pt"
 viewBox="0.00 0.00 871.50 363.00" xmlns="http://www.w3.org/2000/svg" xmlns:xlink="http://www.w3.org/1999/xlink">
<g id="graph0" class="graph" transform="scale(1 1) rotate(0) translate(4 359)">
<title>models_diagram</title>
<polygon fill="none" stroke="none" points="-4,4 -4,-359 867.5,-359 867.5,4 -4,4"/>
<!-- _diagram_info -->
<g id="node1" class="node"><title>_diagram_info</title>
<text text-anchor="start" x="8" y="-303.6" font-family="Times,serif" font-size="13.00">Models diagram</text>
<text text-anchor="start" x="8" y="-289.6" font-family="Times,serif" font-size="13.00">Date: Dec 05 2018 &#45; 21:02</text>
<text text-anchor="start" x="8" y="-275.6" font-family="Times,serif" font-size="13.00">Migration version: 20181205181847</text>
<text text-anchor="start" x="8" y="-261.6" font-family="Times,serif" font-size="13.00">Generated by RailRoady 1.5.3</text>
<text text-anchor="start" x="8" y="-247.6" font-family="Times,serif" font-size="13.00">http://railroady.prestonlee.com</text>
</g>
<!-- ApplicationRecord -->
<g id="node2" class="node"><title>ApplicationRecord</title>
<ellipse fill="none" stroke="black" cx="309" cy="-279" rx="77.1866" ry="18"/>
<text text-anchor="middle" x="309" y="-275.3" font-family="Times,serif" font-size="14.00">ApplicationRecord</text>
</g>
<!-- AdminUser -->
<g id="node3" class="node"><title>AdminUser</title>
<path fill="none" stroke="black" d="M416,-203.5C416,-203.5 592,-203.5 592,-203.5 598,-203.5 604,-209.5 604,-215.5 604,-215.5 604,-342.5 604,-342.5 604,-348.5 598,-354.5 592,-354.5 592,-354.5 416,-354.5 416,-354.5 410,-354.5 404,-348.5 404,-342.5 404,-342.5 404,-215.5 404,-215.5 404,-209.5 410,-203.5 416,-203.5"/>
<text text-anchor="middle" x="504" y="-339.3" font-family="Times,serif" font-size="14.00">AdminUser</text>
<polyline fill="none" stroke="black" points="404,-331.5 604,-331.5 "/>
<text text-anchor="start" x="412" y="-316.3" font-family="Times,serif" font-size="14.00">id :INTEGER</text>
<text text-anchor="start" x="412" y="-301.3" font-family="Times,serif" font-size="14.00">email :varchar</text>
<text text-anchor="start" x="412" y="-286.3" font-family="Times,serif" font-size="14.00">encrypted_password :varchar</text>
<text text-anchor="start" x="412" y="-271.3" font-family="Times,serif" font-size="14.00">reset_password_token :varchar</text>
<text text-anchor="start" x="412" y="-256.3" font-family="Times,serif" font-size="14.00">reset_password_sent_at :datetime</text>
<text text-anchor="start" x="412" y="-241.3" font-family="Times,serif" font-size="14.00">remember_created_at :datetime</text>
<text text-anchor="start" x="412" y="-226.3" font-family="Times,serif" font-size="14.00">created_at :datetime</text>
<text text-anchor="start" x="412" y="-211.3" font-family="Times,serif" font-size="14.00">updated_at :datetime</text>
</g>
<!-- Userparam -->
<g id="node4" class="node"><title>Userparam</title>
<path fill="none" stroke="black" d="M593.5,-15.5C593.5,-15.5 700.5,-15.5 700.5,-15.5 706.5,-15.5 712.5,-21.5 712.5,-27.5 712.5,-27.5 712.5,-139.5 712.5,-139.5 712.5,-145.5 706.5,-151.5 700.5,-151.5 700.5,-151.5 593.5,-151.5 593.5,-151.5 587.5,-151.5 581.5,-145.5 581.5,-139.5 581.5,-139.5 581.5,-27.5 581.5,-27.5 581.5,-21.5 587.5,-15.5 593.5,-15.5"/>
<text text-anchor="middle" x="647" y="-136.3" font-family="Times,serif" font-size="14.00">Userparam</text>
<polyline fill="none" stroke="black" points="581.5,-128.5 712.5,-128.5 "/>
<text text-anchor="start" x="589.5" y="-113.3" font-family="Times,serif" font-size="14.00">id :INTEGER</text>
<text text-anchor="start" x="589.5" y="-98.3" font-family="Times,serif" font-size="14.00">user_id :integer</text>
<text text-anchor="start" x="589.5" y="-83.3" font-family="Times,serif" font-size="14.00">firstname :varchar</text>
<text text-anchor="start" x="589.5" y="-68.3" font-family="Times,serif" font-size="14.00">lastname :varchar</text>
<text text-anchor="start" x="589.5" y="-53.3" font-family="Times,serif" font-size="14.00">age :integer</text>
<text text-anchor="start" x="589.5" y="-38.3" font-family="Times,serif" font-size="14.00">created_at :datetime</text>
<text text-anchor="start" x="589.5" y="-23.3" font-family="Times,serif" font-size="14.00">updated_at :datetime</text>
</g>
<!-- Write -->
<g id="node5" class="node"><title>Write</title>
<path fill="none" stroke="black" d="M742.5,-0.5C742.5,-0.5 851.5,-0.5 851.5,-0.5 857.5,-0.5 863.5,-6.5 863.5,-12.5 863.5,-12.5 863.5,-154.5 863.5,-154.5 863.5,-160.5 857.5,-166.5 851.5,-166.5 851.5,-166.5 742.5,-166.5 742.5,-166.5 736.5,-166.5 730.5,-160.5 730.5,-154.5 730.5,-154.5 730.5,-12.5 730.5,-12.5 730.5,-6.5 736.5,-0.5 742.5,-0.5"/>
<text text-anchor="middle" x="797" y="-151.3" font-family="Times,serif" font-size="14.00">Write</text>
<polyline fill="none" stroke="black" points="730.5,-143.5 863.5,-143.5 "/>
<text text-anchor="start" x="738.5" y="-128.3" font-family="Times,serif" font-size="14.00">id :INTEGER</text>
<text text-anchor="start" x="738.5" y="-113.3" font-family="Times,serif" font-size="14.00">user_id :integer</text>
<text text-anchor="start" x="738.5" y="-98.3" font-family="Times,serif" font-size="14.00">title :varchar</text>
<text text-anchor="start" x="738.5" y="-83.3" font-family="Times,serif" font-size="14.00">firstheroy :varchar</text>
<text text-anchor="start" x="738.5" y="-68.3" font-family="Times,serif" font-size="14.00">secondheroy :varchar</text>
<text text-anchor="start" x="738.5" y="-53.3" font-family="Times,serif" font-size="14.00">aboutstory :varchar</text>
<text text-anchor="start" x="738.5" y="-38.3" font-family="Times,serif" font-size="14.00">body :varchar</text>
<text text-anchor="start" x="738.5" y="-23.3" font-family="Times,serif" font-size="14.00">created_at :datetime</text>
<text text-anchor="start" x="738.5" y="-8.3" font-family="Times,serif" font-size="14.00">updated_at :datetime</text>
</g>
<!-- User -->
<g id="node6" class="node"><title>User</title>
<path fill="none" stroke="black" d="M634,-203.5C634,-203.5 810,-203.5 810,-203.5 816,-203.5 822,-209.5 822,-215.5 822,-215.5 822,-342.5 822,-342.5 822,-348.5 816,-354.5 810,-354.5 810,-354.5 634,-354.5 634,-354.5 628,-354.5 622,-348.5 622,-342.5 622,-342.5 622,-215.5 622,-215.5 622,-209.5 628,-203.5 634,-203.5"/>
<text text-anchor="middle" x="722" y="-339.3" font-family="Times,serif" font-size="14.00">User</text>
<polyline fill="none" stroke="black" points="622,-331.5 822,-331.5 "/>
<text text-anchor="start" x="630" y="-316.3" font-family="Times,serif" font-size="14.00">id :INTEGER</text>
<text text-anchor="start" x="630" y="-301.3" font-family="Times,serif" font-size="14.00">email :varchar</text>
<text text-anchor="start" x="630" y="-286.3" font-family="Times,serif" font-size="14.00">encrypted_password :varchar</text>
<text text-anchor="start" x="630" y="-271.3" font-family="Times,serif" font-size="14.00">reset_password_token :varchar</text>
<text text-anchor="start" x="630" y="-256.3" font-family="Times,serif" font-size="14.00">reset_password_sent_at :datetime</text>
<text text-anchor="start" x="630" y="-241.3" font-family="Times,serif" font-size="14.00">remember_created_at :datetime</text>
<text text-anchor="start" x="630" y="-226.3" font-family="Times,serif" font-size="14.00">created_at :datetime</text>
<text text-anchor="start" x="630" y="-211.3" font-family="Times,serif" font-size="14.00">updated_at :datetime</text>
</g>
<!-- User&#45;&gt;Userparam -->
<g id="edge2" class="edge"><title>User&#45;&gt;Userparam</title>
<path fill="none" stroke="#7fdde0" d="M690.148,-195.822C685.472,-183.757 680.675,-171.381 676.058,-159.471"/>
<ellipse fill="none" stroke="#7fdde0" cx="691.665" cy="-199.735" rx="4.00001" ry="4.00001"/>
<ellipse fill="#7fdde0" stroke="#7fdde0" cx="674.499" cy="-155.448" rx="4.00001" ry="4.00001"/>
</g>
<!-- User&#45;&gt;Write -->
<g id="edge1" class="edge"><title>User&#45;&gt;Write</title>
<path fill="none" stroke="#15b72a" d="M753.863,-195.794C756.369,-189.327 758.911,-182.771 761.44,-176.245"/>
<ellipse fill="none" stroke="#15b72a" cx="752.335" cy="-199.735" rx="4.00001" ry="4.00001"/>
<polygon fill="#15b72a" stroke="#15b72a" points="761.518,-176.044 769.328,-168.346 763.325,-171.382 765.132,-166.72 765.132,-166.72 765.132,-166.72 763.325,-171.382 760.936,-165.093 761.518,-176.044 761.518,-176.044"/>
</g>
</g>
</svg>
