<?xml version="1.0" encoding="UTF-8" standalone="no"?>
<!DOCTYPE svg PUBLIC "-//W3C//DTD SVG 1.1//EN"
 "http://www.w3.org/Graphics/SVG/1.1/DTD/svg11.dtd">
<!-- Generated by graphviz version 2.38.0 (20140413.2041)
 -->
<!-- Title: models_diagram Pages: 1 -->
<svg width="641pt" height="158pt"
 viewBox="0.00 0.00 641.20 158.00" xmlns="http://www.w3.org/2000/svg" xmlns:xlink="http://www.w3.org/1999/xlink">
<g id="graph0" class="graph" transform="scale(1 1) rotate(0) translate(4 154)">
<title>models_diagram</title>
<polygon fill="none" stroke="none" points="-4,4 -4,-154 637.197,-154 637.197,4 -4,4"/>
<!-- _diagram_info -->
<g id="node1" class="node"><title>_diagram_info</title>
<text text-anchor="start" x="8" y="-135.6" font-family="Times,serif" font-size="13.00">Models diagram</text>
<text text-anchor="start" x="8" y="-121.6" font-family="Times,serif" font-size="13.00">Date: Dec 05 2018 &#45; 21:02</text>
<text text-anchor="start" x="8" y="-107.6" font-family="Times,serif" font-size="13.00">Migration version: 20181205181847</text>
<text text-anchor="start" x="8" y="-93.6" font-family="Times,serif" font-size="13.00">Generated by RailRoady 1.5.3</text>
<text text-anchor="start" x="8" y="-79.6" font-family="Times,serif" font-size="13.00">http://railroady.prestonlee.com</text>
</g>
<!-- ApplicationRecord -->
<g id="node2" class="node"><title>ApplicationRecord</title>
<ellipse fill="none" stroke="black" cx="309" cy="-111" rx="77.1866" ry="18"/>
<text text-anchor="middle" x="309" y="-107.3" font-family="Times,serif" font-size="14.00">ApplicationRecord</text>
</g>
<!-- AdminUser -->
<g id="node3" class="node"><title>AdminUser</title>
<ellipse fill="none" stroke="black" cx="456" cy="-111" rx="51.9908" ry="18"/>
<text text-anchor="middle" x="456" y="-107.3" font-family="Times,serif" font-size="14.00">AdminUser</text>
</g>
<!-- Userparam -->
<g id="node4" class="node"><title>Userparam</title>
<ellipse fill="none" stroke="black" cx="503" cy="-18" rx="50.0912" ry="18"/>
<text text-anchor="middle" x="503" y="-14.3" font-family="Times,serif" font-size="14.00">Userparam</text>
</g>
<!-- Write -->
<g id="node5" class="node"><title>Write</title>
<ellipse fill="none" stroke="black" cx="602" cy="-18" rx="31.3957" ry="18"/>
<text text-anchor="middle" x="602" y="-14.3" font-family="Times,serif" font-size="14.00">Write</text>
</g>
<!-- User -->
<g id="node6" class="node"><title>User</title>
<ellipse fill="none" stroke="black" cx="553" cy="-111" rx="27.0966" ry="18"/>
<text text-anchor="middle" x="553" y="-107.3" font-family="Times,serif" font-size="14.00">User</text>
</g>
<!-- User&#45;&gt;Userparam -->
<g id="edge2" class="edge"><title>User&#45;&gt;Userparam</title>
<path fill="none" stroke="#74cbe6" d="M540.01,-86.3589C532.65,-72.9623 523.467,-56.2495 516.09,-42.8229"/>
<ellipse fill="none" stroke="#74cbe6" cx="542.135" cy="-90.2253" rx="4.00002" ry="4.00002"/>
<ellipse fill="#74cbe6" stroke="#74cbe6" cx="514.126" cy="-39.2495" rx="4.00002" ry="4.00002"/>
</g>
<!-- User&#45;&gt;Write -->
<g id="edge1" class="edge"><title>User&#45;&gt;Write</title>
<path fill="none" stroke="#5eaae0" d="M565.756,-86.3102C572.683,-73.4462 581.25,-57.5355 588.316,-44.4135"/>
<ellipse fill="none" stroke="#5eaae0" cx="563.657" cy="-90.2091" rx="4.00002" ry="4.00002"/>
<polygon fill="#5eaae0" stroke="#5eaae0" points="588.409,-44.2397 597.113,-37.5684 590.78,-39.8373 593.15,-35.4349 593.15,-35.4349 593.15,-35.4349 590.78,-39.8373 589.188,-33.3015 588.409,-44.2397 588.409,-44.2397"/>
</g>
</g>
</svg>
